<svg id="레이어_1" data-name="레이어 1" xmlns="http://www.w3.org/2000/svg" viewBox="0 0 500 500"><defs><style>.cls-1{fill:#231815;}.cls-2{fill:#fff;}.cls-3{fill:#389cd8;}.cls-4{fill:#80b927;}.cls-5{fill:#f9be00;}.cls-6{fill:#e94c0e;}</style></defs><path class="cls-1" d="M181,122.18V154a3.19,3.19,0,0,1-3.19,3.2h-17a3.2,3.2,0,0,1-3.2-3.2V122.19A56.23,56.23,0,0,0,147,125.57V154a13.86,13.86,0,0,0,13.85,13.84h17A13.86,13.86,0,0,0,191.67,154V125.57A57,57,0,0,0,181,122.18Z"/><path class="cls-1" d="M177.83,187h-17A13.86,13.86,0,0,0,147,200.79v28.38a56.25,56.25,0,0,0,10.65,3.39V200.79a3.19,3.19,0,0,1,3.2-3.19h17a3.19,3.19,0,0,1,3.19,3.19v31.77a55.54,55.54,0,0,0,10.65-3.39V200.79A13.86,13.86,0,0,0,177.83,187Z"/><path class="cls-1" d="M173.57,212.5h-8.51a5.33,5.33,0,0,0,0,10.65h8.51a5.33,5.33,0,0,0,0-10.65Z"/><path class="cls-2" d="M343.9,255.08h-17A13.86,13.86,0,0,0,313,268.93v46.84a5.32,5.32,0,1,0,10.63,0V268.93a3.22,3.22,0,0,1,.94-2.27,3.18,3.18,0,0,1,2.26-.93h17a3.2,3.2,0,0,1,3.2,3.2v46.84a5.33,5.33,0,0,0,10.65,0V268.93A13.86,13.86,0,0,0,343.9,255.08Z"/><path class="cls-2" d="M233.19,255.08h-17a13.85,13.85,0,0,0-13.84,13.85v38.32a13.83,13.83,0,0,0,13.84,13.84h25.55a5.33,5.33,0,0,0,0-10.65H216.16a3.2,3.2,0,0,1-3.2-3.19V268.93a3.18,3.18,0,0,1,3.2-3.2h17a3.21,3.21,0,0,1,3.2,3.2V281.7a5.32,5.32,0,1,0,10.64,0v-13.6h0A13.85,13.85,0,0,0,233.19,255.08Z"/><path class="cls-2" d="M160.81,157.15h17A3.19,3.19,0,0,0,181,154V122.18a56.09,56.09,0,0,0-23.41,0V154A3.2,3.2,0,0,0,160.81,157.15Z"/><path class="cls-2" d="M177.83,197.6h-17a3.19,3.19,0,0,0-3.2,3.19v31.77a55.86,55.86,0,0,0,23.41,0V200.79A3.19,3.19,0,0,0,177.83,197.6Zm-4.26,25.55h-8.51a5.33,5.33,0,0,1,0-10.65h8.51a5.33,5.33,0,0,1,0,10.65Z"/><path class="cls-2" d="M225.74,177.37a56.41,56.41,0,0,0-34.07-51.8V154a13.86,13.86,0,0,1-13.84,13.84h-17A13.86,13.86,0,0,1,147,154V125.57a56.42,56.42,0,0,0,0,103.6V200.79A13.86,13.86,0,0,1,160.8,187h17a13.86,13.86,0,0,1,13.84,13.83v28.38A56.41,56.41,0,0,0,225.74,177.37Z"/><path class="cls-2" d="M157.61,39A5.33,5.33,0,0,0,147,39V89H126.73a3.15,3.15,0,0,1-2.25-.94,3.19,3.19,0,0,1-.94-2.26V39a5.32,5.32,0,0,0-10.64,0V85.82a13.85,13.85,0,0,0,13.84,13.84H147v25.91a56.23,56.23,0,0,1,10.65-3.38Z"/><path class="cls-2" d="M191.67,39A5.33,5.33,0,1,0,181,39v83.18a57,57,0,0,1,10.65,3.39Z"/><path class="cls-2" d="M147,315.77a5.33,5.33,0,1,0,10.65,0V232.56A56.25,56.25,0,0,1,147,229.17Z"/><path class="cls-2" d="M181,315.77a5.33,5.33,0,0,0,10.65,0v-86.6A55.54,55.54,0,0,1,181,232.56Z"/><path class="cls-2" d="M288.55,255.08h-17a13.86,13.86,0,0,0-13.83,13.85v46.84a5.32,5.32,0,1,0,10.64,0V268.93a3.18,3.18,0,0,1,3.2-3.2h17a3.19,3.19,0,0,1,3.19,3.2v46.84a5.32,5.32,0,0,0,10.64,0V268.93A13.86,13.86,0,0,0,288.55,255.08Z"/><path class="cls-2" d="M284.29,280.64h-8.52a5.32,5.32,0,0,0,0,10.64h8.52a5.32,5.32,0,0,0,0-10.64Z"/><path class="cls-3" d="M347.1,352a11.71,11.71,0,1,1-11.71-11.7A11.71,11.71,0,0,1,347.1,352Z"/><path class="cls-4" d="M291.73,352A11.71,11.71,0,1,1,280,340.25,11.7,11.7,0,0,1,291.73,352Z"/><path class="cls-5" d="M236.39,352a11.71,11.71,0,1,1-11.71-11.7A11.71,11.71,0,0,1,236.39,352Z"/><path class="cls-6" d="M181,352a11.71,11.71,0,1,1-11.7-11.71A11.7,11.7,0,0,1,181,352Z"/><path class="cls-2" d="M196.08,398.78a.4.4,0,0,1-.29.15H184.51v9.63a.37.37,0,0,1-.41.42h-2.61a.37.37,0,0,1-.42-.42v-9.63H169.74a.4.4,0,0,1-.31-.15.53.53,0,0,1-.11-.3v-1.94a.52.52,0,0,1,.11-.32.43.43,0,0,1,.31-.14h26a.41.41,0,0,1,.29.16.39.39,0,0,1,.16.3v1.94A.41.41,0,0,1,196.08,398.78Zm-22.91-5.32a.68.68,0,0,1-.47-.07.52.52,0,0,1-.27-.3l-.69-1.79a.43.43,0,0,1,.09-.39.7.7,0,0,1,.3-.26c1.4-.35,2.76-.73,4.1-1.16s2.58-.89,3.74-1.37a30.29,30.29,0,0,0,3.12-1.53,15.51,15.51,0,0,0,2.32-1.6,1,1,0,0,0,.36-.43c0-.11-.14-.17-.48-.17H174.34A.35.35,0,0,1,174,384v-2c0-.23.14-.35.39-.35H188.4a4,4,0,0,1,1.87.37,1.11,1.11,0,0,1,.7,1,2.09,2.09,0,0,1-.28,1,7.77,7.77,0,0,1-.52.85,14.62,14.62,0,0,1-3.77,3.32c.53.2,1.11.41,1.71.61l1.86.62c.63.2,1.25.38,1.87.53s1.2.29,1.73.39a.53.53,0,0,1,.33.23.4.4,0,0,1,0,.4l-.71,1.8c-.15.32-.36.45-.66.38a19.68,19.68,0,0,1-2-.5c-.75-.23-1.53-.48-2.33-.76s-1.63-.61-2.46-.95-1.62-.68-2.38-1a42,42,0,0,1-5,2.07A52,52,0,0,1,173.17,393.46Z"/><path class="cls-2" d="M199,396.89a.71.71,0,0,1-.57.18,1,1,0,0,1-.42-.27l-1.19-1.41c-.22-.21-.31-.39-.26-.53a.83.83,0,0,1,.38-.39,23.47,23.47,0,0,0,2.93-2.34,12.23,12.23,0,0,0,2.1-2.68,11.7,11.7,0,0,0,1.28-3.31,19.14,19.14,0,0,0,.41-4.23.46.46,0,0,1,.16-.36.43.43,0,0,1,.29-.15l2.64.12c.26,0,.39.15.39.44a21.54,21.54,0,0,1-.54,5,11.63,11.63,0,0,0,1.25,2,14.81,14.81,0,0,0,1.6,1.74,13.69,13.69,0,0,0,1.74,1.4,11.83,11.83,0,0,0,1.66,1c.34.13.39.38.17.72l-1,1.63a.61.61,0,0,1-.84.27,13.31,13.31,0,0,1-3.32-2.13,14.42,14.42,0,0,1-2.63-3,14.24,14.24,0,0,1-2.6,3.38A29.34,29.34,0,0,1,199,396.89ZM219.64,409a.43.43,0,0,1-.31.14h-2.54a.51.51,0,0,1-.34-.14.4.4,0,0,1-.14-.28V401.8a.51.51,0,0,0-.12-.39.73.73,0,0,0-.42-.09H202a.42.42,0,0,1-.29-.11.33.33,0,0,1-.13-.25v-2.12a.36.36,0,0,1,.13-.3.52.52,0,0,1,.29-.09h15.73a2.06,2.06,0,0,1,1.57.48,2.39,2.39,0,0,1,.43,1.61v8.17A.38.38,0,0,1,219.64,409Zm.13-12.42c0,.25-.13.38-.41.38h-2.64a.4.4,0,0,1-.28-.11.39.39,0,0,1-.13-.3V381.19a.35.35,0,0,1,.13-.27.41.41,0,0,1,.28-.12h2.64c.28,0,.41.13.41.39Z"/><path class="cls-2" d="M223.43,401.47c1.14,0,2.32,0,3.57,0l3.75-.09v-2.57a8.58,8.58,0,0,1-1.93-.64,5.8,5.8,0,0,1-1.52-1.08,4.77,4.77,0,0,1-1-1.45,4.31,4.31,0,0,1-.36-1.77,4.1,4.1,0,0,1,.53-2,4.87,4.87,0,0,1,1.41-1.59,6.88,6.88,0,0,1,2.1-1,8.71,8.71,0,0,1,2.54-.37,9.06,9.06,0,0,1,2.59.37,6.76,6.76,0,0,1,2.1,1,4.76,4.76,0,0,1,1.41,1.59,4.3,4.3,0,0,1,.51,2,4,4,0,0,1-.39,1.77,4.75,4.75,0,0,1-1.06,1.43,6.51,6.51,0,0,1-1.59,1.07,7.83,7.83,0,0,1-2,.61v2.48L238,401c1.24-.11,2.4-.24,3.46-.39a.73.73,0,0,1,.33,0,.31.31,0,0,1,.23.3l.18,1.88a.39.39,0,0,1-.09.35.63.63,0,0,1-.27.16c-1.12.17-2.43.34-3.94.47s-3.11.26-4.78.35-3.34.15-5,.19-3.21.05-4.63,0a.46.46,0,0,1-.34-.14.42.42,0,0,1-.11-.31v-2A.4.4,0,0,1,223.43,401.47Zm17.12-13.8a.46.46,0,0,1-.31.13H224.41a.4.4,0,0,1-.29-.15.42.42,0,0,1-.15-.33v-1.68a.45.45,0,0,1,.16-.3.5.5,0,0,1,.31-.14h15.8a.46.46,0,0,1,.44.44v1.71A.45.45,0,0,1,240.55,387.67Zm-3.86-3.85a.4.4,0,0,1-.34.15h-7.93a.58.58,0,0,1-.3-.12.41.41,0,0,1-.17-.35v-1.74a.39.39,0,0,1,.17-.33.58.58,0,0,1,.3-.12h7.93a.52.52,0,0,1,.48.48v1.67A.52.52,0,0,1,236.69,383.82Zm-4.17,7.69a4.07,4.07,0,0,0-2.4.67,2.05,2.05,0,0,0-1,1.72,2.07,2.07,0,0,0,.94,1.74,4,4,0,0,0,2.41.69,4,4,0,0,0,2.44-.69,2.1,2.1,0,0,0,.94-1.74,2.06,2.06,0,0,0-.94-1.72A4.09,4.09,0,0,0,232.52,391.51Zm14.15,17.29q0,.39-.42.39h-2.63a.48.48,0,0,1-.29-.11.35.35,0,0,1-.14-.28V381.19a.36.36,0,0,1,.14-.27.44.44,0,0,1,.29-.12h2.63q.42,0,.42.39Z"/><path class="cls-2" d="M252,402.58a.69.69,0,0,1-1,0l-1.41-1.31c-.28-.28-.26-.58.09-.92a19.67,19.67,0,0,0,3.32-3.93,21,21,0,0,0,2.21-4.6c.24-.71.45-1.43.62-2.14a21.66,21.66,0,0,0,.4-2.16c.1-.73.17-1.48.21-2.26s.05-1.63,0-2.51a.41.41,0,0,1,.14-.31.38.38,0,0,1,.28-.14l2.66.09a.36.36,0,0,1,.27.14.53.53,0,0,1,.12.32c0,1.21-.05,2.35-.12,3.39a29,29,0,0,1-.39,3,13.81,13.81,0,0,0,.93,2.81,19.51,19.51,0,0,0,1.46,2.7,19.31,19.31,0,0,0,1.81,2.4,16.76,16.76,0,0,0,1.93,1.87c.32.23.34.55.06.92l-1.26,1.53a.55.55,0,0,1-.4.24.8.8,0,0,1-.55-.18,16.84,16.84,0,0,1-1.53-1.4,21,21,0,0,1-1.54-1.81c-.49-.66-.94-1.32-1.36-2a12.88,12.88,0,0,1-1-2,26.69,26.69,0,0,1-1.23,2.45,25.47,25.47,0,0,1-3.07,4.24A15.76,15.76,0,0,1,252,402.58Zm24.36-8.11a.41.41,0,0,1-.28.12H272V408.8a.34.34,0,0,1-.39.39H269a.34.34,0,0,1-.39-.39V381.19a.34.34,0,0,1,.39-.39h2.66a.34.34,0,0,1,.39.39v10.53h4.07a.45.45,0,0,1,.28.11.3.3,0,0,1,.14.25v2.09A.39.39,0,0,1,276.38,394.47Z"/><path class="cls-2" d="M283.25,400.75q3.35.11,6.73,0v-4.69a7.59,7.59,0,0,1-2.31-.78,7.07,7.07,0,0,1-1.82-1.43,6,6,0,0,1-1.21-2,6.82,6.82,0,0,1,.13-5.14,6.69,6.69,0,0,1,1.55-2.15,7.12,7.12,0,0,1,2.3-1.41,8.4,8.4,0,0,1,5.71,0,7.27,7.27,0,0,1,2.31,1.41,6.56,6.56,0,0,1,2.14,4.88,6.5,6.5,0,0,1-.41,2.32,6.15,6.15,0,0,1-1.14,1.92,6.84,6.84,0,0,1-1.73,1.42,7.36,7.36,0,0,1-2.21.85v4.62c1.2-.07,2.39-.17,3.55-.3s2.34-.28,3.52-.46a1,1,0,0,1,.33,0,.31.31,0,0,1,.21.28l.18,1.91a.43.43,0,0,1-.1.37.5.5,0,0,1-.26.15,73,73,0,0,1-8.68.89q-4.49.21-8.79.15c-.29,0-.42-.15-.42-.48v-2A.37.37,0,0,1,283.25,400.75Zm8.22-15.23a4.15,4.15,0,0,0-1.55.29,4.2,4.2,0,0,0-1.26.79,3.42,3.42,0,0,0-.83,1.25,4.08,4.08,0,0,0-.31,1.63,4.17,4.17,0,0,0,.31,1.64,3.46,3.46,0,0,0,.83,1.26,4.2,4.2,0,0,0,1.26.79,4.15,4.15,0,0,0,1.55.29,4.11,4.11,0,0,0,2.82-1.08,3.62,3.62,0,0,0,.84-1.26,4.56,4.56,0,0,0,.29-1.64,4.46,4.46,0,0,0-.29-1.63,3.58,3.58,0,0,0-.84-1.25,4.11,4.11,0,0,0-2.82-1.08Zm18.41,9.79a.41.41,0,0,1-.28.12h-3.92V408.8a.34.34,0,0,1-.39.39h-2.66a.34.34,0,0,1-.39-.39V381.19a.34.34,0,0,1,.39-.39h2.66a.34.34,0,0,1,.39.39v11.37h3.92a.41.41,0,0,1,.28.12.31.31,0,0,1,.14.26V395A.35.35,0,0,1,309.88,395.31Z"/><path class="cls-2" d="M311.38,388.37a.49.49,0,0,1,.25-.12c1.28,0,2.55-.05,3.79-.09s2.42-.11,3.55-.21a5.37,5.37,0,0,0,.32-.84c.08-.27.15-.56.21-.83a2.45,2.45,0,0,0,.06-.68c0-.11-.18-.16-.48-.16h-6.7a.34.34,0,0,1-.28-.14A.42.42,0,0,1,312,385V383c0-.28.14-.41.42-.41h8.29c1.61,0,2.42.62,2.42,1.88a6.45,6.45,0,0,1-.06.75,3.29,3.29,0,0,1-.12.63,16.56,16.56,0,0,1-3.49,7,20.15,20.15,0,0,1-7.28,5.25,1,1,0,0,1-.54.12.62.62,0,0,1-.39-.33l-.84-1.52a.65.65,0,0,1-.08-.48.66.66,0,0,1,.36-.4,19.38,19.38,0,0,0,3.81-2.19,15.27,15.27,0,0,0,2.8-2.68c-.92.08-1.85.15-2.8.2s-1.89.07-2.83.07a.43.43,0,0,1-.28-.14.41.41,0,0,1-.17-.34v-1.82A.36.36,0,0,1,311.38,388.37Zm23.87,20.22a.52.52,0,0,1-.29.09H318.34a2.5,2.5,0,0,1-1.81-.48,2.29,2.29,0,0,1-.47-1.65v-6.61a.35.35,0,0,1,.13-.27.4.4,0,0,1,.29-.14h2.57a.43.43,0,0,1,.32.14.39.39,0,0,1,.13.27v5.39a.48.48,0,0,0,.12.39.73.73,0,0,0,.42.09H335a.48.48,0,0,1,.29.11.37.37,0,0,1,.14.28v2.12A.31.31,0,0,1,335.25,408.59Zm-4-27.4c0-.26.15-.39.43-.39h2.56a.34.34,0,0,1,.39.39v18.94c0,.26-.12.38-.39.38h-2.59c-.26,0-.4-.12-.4-.38V392h-2.6v7.44a.35.35,0,0,1-.39.4h-2.45c-.28,0-.42-.13-.42-.4V381.67q0-.39.42-.39h2.45a.34.34,0,0,1,.39.39v7.44h2.6Z"/><path class="cls-2" d="M202.2,445.68a.66.66,0,0,1-.33.05H199a.66.66,0,0,1-.33-.05c-.06,0-.11-.12-.15-.28l-5-17-5,17c0,.16-.08.25-.13.28a.68.68,0,0,1-.35.05H185.3a.66.66,0,0,1-.33-.05c-.06,0-.11-.12-.15-.28l-6.31-21.8a.43.43,0,0,1,0-.32c0-.07.19-.1.45-.1h2.48a.58.58,0,0,1,.3.05c.06,0,.11.11.15.25l5,16.87,4.85-16.87c0-.14.1-.23.16-.25a.72.72,0,0,1,.32-.05H195a.69.69,0,0,1,.32.05c.07,0,.12.11.16.25l4.85,16.86,5-16.86c0-.14.09-.23.15-.25a.58.58,0,0,1,.3-.05h2.48c.26,0,.41,0,.45.1a.43.43,0,0,1,0,.32l-6.31,21.8C202.31,445.56,202.26,445.65,202.2,445.68Z"/><path class="cls-2" d="M223.44,445.73a.58.58,0,0,1-.3-.05.48.48,0,0,1-.18-.25L220.81,440h-9.75l-2.16,5.39c0,.14-.09.22-.15.25a.58.58,0,0,1-.3.05H205.7q-.54,0-.36-.42l8.73-21.8a.82.82,0,0,1,.14-.28s.14-.05.34-.05h2.79c.17,0,.28,0,.32.05s.09.12.15.28l8.74,21.8q.15.42-.36.42Zm-11.16-8.82h7.27l-3.62-9.23Z"/><path class="cls-2" d="M242.07,445.49a18.48,18.48,0,0,1-2.09.45,17,17,0,0,1-2.84.21,12.18,12.18,0,0,1-4.62-.84,10.06,10.06,0,0,1-3.55-2.37,10.92,10.92,0,0,1-2.27-3.7,13.47,13.47,0,0,1-.81-4.78,13.9,13.9,0,0,1,.79-4.76,10.79,10.79,0,0,1,2.26-3.69,10,10,0,0,1,3.54-2.39,12.17,12.17,0,0,1,4.66-.86,25.17,25.17,0,0,1,2.63.13,11.7,11.7,0,0,1,2.33.47c.22.06.35.13.39.22a.89.89,0,0,1,0,.43l-.07,2.22c0,.32-.05.47-.14.47a1.77,1.77,0,0,1-.52-.11,15.74,15.74,0,0,0-4.66-.69,8.42,8.42,0,0,0-3.31.62,7.08,7.08,0,0,0-2.45,1.77,7.74,7.74,0,0,0-1.53,2.71,11.12,11.12,0,0,0-.52,3.46,10,10,0,0,0,.57,3.42,8.29,8.29,0,0,0,1.6,2.72,7.7,7.7,0,0,0,2.45,1.81,7.42,7.42,0,0,0,3.16.66,21.89,21.89,0,0,0,2.64-.13,9.58,9.58,0,0,0,2-.47c.25-.1.43-.13.5-.09s.12.13.12.27l.13,2.13a.89.89,0,0,1-.05.47A.62.62,0,0,1,242.07,445.49Z"/><path class="cls-2" d="M261,445.73a.56.56,0,0,1-.29-.05.48.48,0,0,1-.18-.25L258.37,440h-9.75l-2.15,5.39c0,.14-.09.22-.15.25a.58.58,0,0,1-.3.05h-2.75q-.54,0-.36-.42l8.73-21.8a1.08,1.08,0,0,1,.14-.28s.15-.05.35-.05h2.78a.62.62,0,0,1,.33.05.82.82,0,0,1,.14.28l8.74,21.8q.15.42-.36.42Zm-11.15-8.82h7.27l-3.62-9.23Z"/><path class="cls-2" d="M278.83,445.73a.58.58,0,0,1-.35-.09,1.43,1.43,0,0,1-.31-.39l-9.38-16.16v16.16c0,.2,0,.33-.1.39a.55.55,0,0,1-.38.09h-2.49a.54.54,0,0,1-.35-.09c-.09-.06-.13-.19-.13-.39V423.69c0-.25,0-.4.13-.46a.59.59,0,0,1,.44-.12h2.75a.73.73,0,0,1,.36.08,1.21,1.21,0,0,1,.3.41l9.4,16.14V423.6a.58.58,0,0,1,.09-.39.54.54,0,0,1,.39-.1h2.48a.51.51,0,0,1,.37.1.66.66,0,0,1,.08.39v21.57a.71.71,0,0,1-.11.46.63.63,0,0,1-.43.1Z"/><path class="cls-2" d="M287.78,447.7a2.3,2.3,0,0,1-2.31-2.3,2.18,2.18,0,0,1,.68-1.61,2.31,2.31,0,0,1,3.25,0,2.23,2.23,0,0,1,.65,1.61,2.27,2.27,0,0,1-.65,1.63A2.2,2.2,0,0,1,287.78,447.7Z"/><path class="cls-2" d="M305.67,445.7a1.07,1.07,0,0,1-.47-.07,1.18,1.18,0,0,1-.31-.32l-6.47-9.54-2,2.45v7.15a.32.32,0,0,1-.36.36h-2.66a.32.32,0,0,1-.36-.36V423.53a.32.32,0,0,1,.36-.35h2.66a.32.32,0,0,1,.36.35v9.53l7.69-9.46a.57.57,0,0,1,.45-.3h3.26c.22,0,.34,0,.36.09s0,.17-.15.32l-7.45,9.36,8.31,12.24c.19.26.1.39-.23.39Z"/><path class="cls-2" d="M323.29,445.73a1.31,1.31,0,0,1-.47-.05.64.64,0,0,1-.29-.25L318,436.57h-3.41v8.77a.34.34,0,0,1-.39.39H311.5q-.36,0-.36-.39V423.53a.42.42,0,0,1,.1-.25.35.35,0,0,1,.26-.1h6a7.94,7.94,0,0,1,5.27,1.62,6.16,6.16,0,0,1,1.94,5,6.73,6.73,0,0,1-1,3.69,6,6,0,0,1-2.63,2.29l5,9.51c.17.28,0,.42-.36.42Zm-8.74-19.41v7.15H317a5.13,5.13,0,0,0,3.14-.86,3.27,3.27,0,0,0,1.17-2.83,3.42,3.42,0,0,0-.91-2.57,3.35,3.35,0,0,0-2.44-.89Z"/></svg>