<svg id="검정" xmlns="http://www.w3.org/2000/svg" viewBox="0 0 1000 1000"><defs><style>.cls-1{fill:#231815;}.cls-2{fill:#fff;}.cls-3{fill:#389cd8;}.cls-4{fill:#80b927;}.cls-5{fill:#f9be00;}.cls-6{fill:#e94c0e;}</style></defs><path class="cls-1" d="M376.51,321.57v77.06a7.75,7.75,0,0,1-7.74,7.76H327.46a7.77,7.77,0,0,1-7.76-7.76V321.58a135.12,135.12,0,0,0-25.82,8.22v68.83a33.61,33.61,0,0,0,33.58,33.58h41.31a33.62,33.62,0,0,0,33.57-33.58V329.79A135,135,0,0,0,376.51,321.57Z"/><path class="cls-1" d="M368.77,478.7H327.44a33.61,33.61,0,0,0-33.56,33.56v68.85a135.86,135.86,0,0,0,25.82,8.23V512.26a7.75,7.75,0,0,1,7.76-7.74h41.31a7.75,7.75,0,0,1,7.74,7.74v77.09a136.44,136.44,0,0,0,25.83-8.23V512.26A33.62,33.62,0,0,0,368.77,478.7Z"/><path class="cls-1" d="M358.43,540.67H337.78a12.93,12.93,0,0,0,0,25.85h20.65a12.93,12.93,0,0,0,0-25.85Z"/><path class="cls-2" d="M771.66,644H730.33a33.61,33.61,0,0,0-33.57,33.58l0,113.64a12.9,12.9,0,1,0,25.8,0V677.56a7.75,7.75,0,0,1,7.75-7.75h41.33a7.76,7.76,0,0,1,7.76,7.75V791.2a12.91,12.91,0,1,0,25.82,0V677.56A33.61,33.61,0,0,0,771.66,644Z"/><path class="cls-2" d="M503.06,644H461.74a33.6,33.6,0,0,0-33.56,33.58v93a33.56,33.56,0,0,0,33.56,33.58h62a12.91,12.91,0,1,0,0-25.82h-62a7.78,7.78,0,0,1-7.76-7.76v-93a7.75,7.75,0,0,1,7.76-7.75h41.32a7.77,7.77,0,0,1,7.76,7.75v31a12.92,12.92,0,1,0,25.83,0v-33h-.07A33.64,33.64,0,0,0,503.06,644Z"/><path class="cls-2" d="M327.46,406.39h41.31a7.75,7.75,0,0,0,7.74-7.76V321.57a135.75,135.75,0,0,0-56.81,0v77.05A7.77,7.77,0,0,0,327.46,406.39Z"/><path class="cls-2" d="M368.77,504.52H327.46a7.75,7.75,0,0,0-7.76,7.74v77.08a136.2,136.2,0,0,0,56.81,0V512.26A7.75,7.75,0,0,0,368.77,504.52Zm-10.34,62H337.78a12.93,12.93,0,0,1,0-25.85h20.65a12.93,12.93,0,0,1,0,25.85Z"/><path class="cls-2" d="M485,455.44a136.83,136.83,0,0,0-82.65-125.65v68.84a33.62,33.62,0,0,1-33.57,33.58H327.46a33.61,33.61,0,0,1-33.58-33.58V329.8a136.85,136.85,0,0,0,0,251.31V512.26a33.61,33.61,0,0,1,33.56-33.56h41.33a33.62,33.62,0,0,1,33.57,33.56v68.86A136.86,136.86,0,0,0,485,455.44Z"/><path class="cls-2" d="M319.7,119.72a12.91,12.91,0,1,0-25.82,0V241.11H244.8a7.78,7.78,0,0,1-7.75-7.76V119.72a12.91,12.91,0,1,0-25.81,0V233.35a33.61,33.61,0,0,0,33.58,33.58h49.06V329.8a135.12,135.12,0,0,1,25.82-8.22Z"/><path class="cls-2" d="M402.34,119.72a12.92,12.92,0,1,0-25.83,0V321.57a135,135,0,0,1,25.83,8.22Z"/><path class="cls-2" d="M293.88,791.2a12.91,12.91,0,1,0,25.82,0V589.34a135.86,135.86,0,0,1-25.82-8.23Z"/><path class="cls-2" d="M376.51,791.2a12.92,12.92,0,0,0,25.83,0V581.12a136.44,136.44,0,0,1-25.83,8.23Z"/><path class="cls-2" d="M637.37,644H596a33.61,33.61,0,0,0-33.56,33.58V791.2a12.91,12.91,0,1,0,25.82,0V677.56a7.75,7.75,0,0,1,7.76-7.75h41.32a7.75,7.75,0,0,1,7.74,7.75V791.2a12.91,12.91,0,0,0,25.82,0V677.56A33.61,33.61,0,0,0,637.37,644Z"/><path class="cls-2" d="M627,706H606.37a12.91,12.91,0,0,0,0,25.82H627A12.91,12.91,0,1,0,627,706Z"/><path class="cls-3" d="M779.41,879A28.41,28.41,0,1,1,751,850.6,28.4,28.4,0,0,1,779.41,879Z"/><path class="cls-4" d="M645.1,879a28.4,28.4,0,1,1-28.41-28.41A28.4,28.4,0,0,1,645.1,879Z"/><path class="cls-5" d="M510.82,879a28.41,28.41,0,1,1-28.41-28.4A28.41,28.41,0,0,1,510.82,879Z"/><path class="cls-6" d="M376.51,879a28.4,28.4,0,1,1-28.4-28.41A28.41,28.41,0,0,1,376.51,879Z"/></svg>